<svg width="142" height="200" viewBox="0 0 142 200" fill="none" xmlns="http://www.w3.org/2000/svg">
<ellipse cx="13.7362" cy="12.0419" rx="12.6374" ry="12.0419" fill="#C4C4C4"/>
<path d="M8.22039 5.84736H13.0204V7.44736H9.98039V10.4074H12.3964V12.0074H9.98039V15.4474H13.0204V17.0474H8.22039V5.84736ZM15.6161 11.3194L13.6801 5.84736H15.5361L16.7201 9.46336H16.7521L17.9681 5.84736H19.6321L17.6961 11.3194L19.7281 17.0474H17.8721L16.5921 13.1434H16.5601L15.2481 17.0474H13.5841L15.6161 11.3194Z" fill="white"/>
<ellipse cx="13.7362" cy="41.3612" rx="12.6374" ry="12.0419" fill="#C4C4C4"/>
<path d="M7.03289 35.1667H11.8329V36.7667H8.79289V39.7267H11.2089V41.3267H8.79289V44.7667H11.8329V46.3667H7.03289V35.1667ZM12.4294 35.1667H14.1254L14.9094 43.7747H14.9414L15.7734 35.1667H17.6934L18.5254 43.7747H18.5574L19.3414 35.1667H20.8614L19.7254 46.3667H17.5334L16.7334 38.8147H16.7014L15.9014 46.3667H13.5654L12.4294 35.1667Z" fill="white"/>
<ellipse cx="13.7362" cy="70.6806" rx="12.6374" ry="12.0419" fill="#C4C4C4"/>
<path d="M10.5832 75.846C9.74053 75.846 9.0952 75.606 8.6472 75.126C8.20987 74.646 7.9912 73.9687 7.9912 73.094V67.078C7.9912 66.2034 8.20987 65.526 8.6472 65.046C9.0952 64.566 9.74053 64.326 10.5832 64.326C11.4259 64.326 12.0659 64.566 12.5032 65.046C12.9512 65.526 13.1752 66.2034 13.1752 67.078V68.262H11.5112V66.966C11.5112 66.2727 11.2179 65.926 10.6312 65.926C10.0445 65.926 9.7512 66.2727 9.7512 66.966V73.222C9.7512 73.9047 10.0445 74.246 10.6312 74.246C11.2179 74.246 11.5112 73.9047 11.5112 73.222V71.51H13.1752V73.094C13.1752 73.9687 12.9512 74.646 12.5032 75.126C12.0659 75.606 11.4259 75.846 10.5832 75.846ZM14.2282 64.486H16.8362C17.7429 64.486 18.4042 64.6994 18.8202 65.126C19.2362 65.542 19.4442 66.1874 19.4442 67.062V67.75C19.4442 68.9127 19.0602 69.6487 18.2922 69.958V69.99C18.7189 70.118 19.0175 70.3794 19.1882 70.774C19.3695 71.1687 19.4602 71.6967 19.4602 72.358V74.326C19.4602 74.646 19.4709 74.9074 19.4922 75.11C19.5135 75.302 19.5669 75.494 19.6522 75.686H17.8602C17.7962 75.5047 17.7535 75.334 17.7322 75.174C17.7109 75.014 17.7002 74.726 17.7002 74.31V72.262C17.7002 71.75 17.6149 71.3927 17.4442 71.19C17.2842 70.9874 17.0015 70.886 16.5962 70.886H15.9882V75.686H14.2282V64.486ZM16.6282 69.286C16.9802 69.286 17.2415 69.1954 17.4122 69.014C17.5935 68.8327 17.6842 68.5287 17.6842 68.102V67.238C17.6842 66.8327 17.6095 66.5394 17.4602 66.358C17.3215 66.1767 17.0975 66.086 16.7882 66.086H15.9882V69.286H16.6282Z" fill="white"/>
<ellipse cx="13.7362" cy="99.9999" rx="12.6374" ry="12.0419" fill="#FFBF43"/>
<path d="M8.07195 93.8054H12.872V95.4054H9.83195V98.3654H12.248V99.9654H9.83195V103.405H12.872V105.005H8.07195V93.8054ZM13.8845 93.8054H16.0925L17.8045 100.509H17.8365V93.8054H19.4045V105.005H17.5965L15.4845 96.8294H15.4525V105.005H13.8845V93.8054Z" fill="white"/>
<ellipse cx="13.7362" cy="129.319" rx="12.6374" ry="12.0419" fill="#C4C4C4"/>
<path d="M7.65483 123.124H9.43083L10.5828 131.812H10.6148L11.7668 123.124H13.3828L11.6868 134.324H9.35083L7.65483 123.124ZM16.7882 134.484C15.9349 134.484 15.2842 134.244 14.8362 133.764C14.3882 133.274 14.1642 132.575 14.1642 131.668V123.124H15.9242V131.796C15.9242 132.18 15.9989 132.458 16.1482 132.628C16.3082 132.799 16.5322 132.884 16.8202 132.884C17.1082 132.884 17.3269 132.799 17.4762 132.628C17.6362 132.458 17.7162 132.18 17.7162 131.796V123.124H19.4122V131.668C19.4122 132.575 19.1882 133.274 18.7402 133.764C18.2922 134.244 17.6415 134.484 16.7882 134.484Z" fill="white"/>
<ellipse cx="13.7362" cy="158.639" rx="12.6374" ry="12.0419" fill="#C4C4C4"/>
<path d="M8.06414 152.444H10.2721L11.9841 159.148H12.0161V152.444H13.5841V163.644H11.7761L9.66414 155.468H9.63214V163.644H8.06414V152.444ZM16.2683 154.044H14.4283V152.444H19.8683V154.044H18.0283V163.644H16.2683V154.044Z" fill="white"/>
<ellipse cx="13.7362" cy="187.958" rx="12.6374" ry="12.0419" fill="#C4C4C4"/>
<path d="M8.61101 181.763H10.371V191.363H13.267V192.963H8.61101V181.763ZM16.5285 193.123C15.6858 193.123 15.0405 192.883 14.5925 192.403C14.1552 191.923 13.9365 191.246 13.9365 190.371V184.355C13.9365 183.48 14.1552 182.803 14.5925 182.323C15.0405 181.843 15.6858 181.603 16.5285 181.603C17.3712 181.603 18.0112 181.843 18.4485 182.323C18.8965 182.803 19.1205 183.48 19.1205 184.355V185.539H17.4565V184.243C17.4565 183.55 17.1632 183.203 16.5765 183.203C15.9898 183.203 15.6965 183.55 15.6965 184.243V190.499C15.6965 191.182 15.9898 191.523 16.5765 191.523C17.1632 191.523 17.4565 191.182 17.4565 190.499V188.787H19.1205V190.371C19.1205 191.246 18.8965 191.923 18.4485 192.403C18.0112 192.883 17.3712 193.123 16.5285 193.123Z" fill="white"/>
<path d="M32.656 93.8H37.456V95.4H34.416V98.36H36.832V99.96H34.416V103.4H37.456V105H32.656V93.8ZM38.4685 93.8H40.6765L42.3885 100.504H42.4205V93.8H43.9885V105H42.1805L40.0685 96.824H40.0365V105H38.4685V93.8ZM45.2966 93.8H47.9846C48.8593 93.8 49.5153 94.0347 49.9526 94.504C50.39 94.9733 50.6086 95.6613 50.6086 96.568V102.232C50.6086 103.139 50.39 103.827 49.9526 104.296C49.5153 104.765 48.8593 105 47.9846 105H45.2966V93.8ZM47.9526 103.4C48.2406 103.4 48.4593 103.315 48.6086 103.144C48.7686 102.973 48.8486 102.696 48.8486 102.312V96.488C48.8486 96.104 48.7686 95.8267 48.6086 95.656C48.4593 95.4853 48.2406 95.4 47.9526 95.4H47.0566V103.4H47.9526ZM53.1254 93.8H55.5094L57.3334 105H55.5734L55.2534 102.776V102.808H53.2534L52.9334 105H51.3014L53.1254 93.8ZM55.0454 101.288L54.2614 95.752H54.2294L53.4614 101.288H55.0454ZM58.1873 93.8H60.3953L62.1073 100.504H62.1393V93.8H63.7073V105H61.8993L59.7873 96.824H59.7553V105H58.1873V93.8ZM67.5114 105.16C66.658 105.16 66.0074 104.92 65.5594 104.44C65.1114 103.949 64.8874 103.251 64.8874 102.344V96.456C64.8874 95.5493 65.1114 94.856 65.5594 94.376C66.0074 93.8853 66.658 93.64 67.5114 93.64C68.3647 93.64 69.0154 93.8853 69.4634 94.376C69.9114 94.856 70.1354 95.5493 70.1354 96.456V97.416H68.4714V96.344C68.4714 95.608 68.1674 95.24 67.5594 95.24C66.9514 95.24 66.6474 95.608 66.6474 96.344V102.472C66.6474 103.197 66.9514 103.56 67.5594 103.56C68.1674 103.56 68.4714 103.197 68.4714 102.472V100.28H67.5914V98.68H70.1354V102.344C70.1354 103.251 69.9114 103.949 69.4634 104.44C69.0154 104.92 68.3647 105.16 67.5114 105.16ZM71.2654 93.8H76.0654V95.4H73.0254V98.36H75.4414V99.96H73.0254V103.4H76.0654V105H71.2654V93.8ZM77.0779 93.8H79.6859C80.5925 93.8 81.2539 94.0133 81.6699 94.44C82.0859 94.856 82.2939 95.5013 82.2939 96.376V97.064C82.2939 98.2267 81.9099 98.9627 81.1419 99.272V99.304C81.5685 99.432 81.8672 99.6933 82.0379 100.088C82.2192 100.483 82.3099 101.011 82.3099 101.672V103.64C82.3099 103.96 82.3205 104.221 82.3419 104.424C82.3632 104.616 82.4165 104.808 82.5019 105H80.7099C80.6459 104.819 80.6032 104.648 80.5819 104.488C80.5605 104.328 80.5499 104.04 80.5499 103.624V101.576C80.5499 101.064 80.4645 100.707 80.2939 100.504C80.1339 100.301 79.8512 100.2 79.4459 100.2H78.8379V105H77.0779V93.8ZM79.4779 98.6C79.8299 98.6 80.0912 98.5093 80.2619 98.328C80.4432 98.1467 80.5339 97.8427 80.5339 97.416V96.552C80.5339 96.1467 80.4592 95.8533 80.3099 95.672C80.1712 95.4907 79.9472 95.4 79.6379 95.4H78.8379V98.6H79.4779ZM83.531 93.8H88.331V95.4H85.291V98.36H87.707V99.96H85.291V103.4H88.331V105H83.531V93.8ZM89.3435 93.8H92.0315C92.9062 93.8 93.5622 94.0347 93.9995 94.504C94.4368 94.9733 94.6555 95.6613 94.6555 96.568V102.232C94.6555 103.139 94.4368 103.827 93.9995 104.296C93.5622 104.765 92.9062 105 92.0315 105H89.3435V93.8ZM91.9995 103.4C92.2875 103.4 92.5062 103.315 92.6555 103.144C92.8155 102.973 92.8955 102.696 92.8955 102.312V96.488C92.8955 96.104 92.8155 95.8267 92.6555 95.656C92.5062 95.4853 92.2875 95.4 91.9995 95.4H91.1035V103.4H91.9995Z" fill="black"/>
<path d="M32.192 123.8H33.968L35.12 132.488H35.152L36.304 123.8H37.92L36.224 135H33.888L32.192 123.8ZM41.3254 135.16C40.472 135.16 39.8214 134.92 39.3734 134.44C38.9254 133.949 38.7014 133.251 38.7014 132.344V123.8H40.4614V132.472C40.4614 132.856 40.536 133.133 40.6854 133.304C40.8454 133.475 41.0694 133.56 41.3574 133.56C41.6454 133.56 41.864 133.475 42.0134 133.304C42.1734 133.133 42.2534 132.856 42.2534 132.472V123.8H43.9494V132.344C43.9494 133.251 43.7254 133.949 43.2774 134.44C42.8294 134.92 42.1787 135.16 41.3254 135.16ZM45.2029 123.8H46.9629V133.4H49.8589V135H45.2029V123.8ZM50.7029 123.8H52.9109L54.6229 130.504H54.6549V123.8H56.2229V135H54.4149L52.3029 126.824H52.2709V135H50.7029V123.8ZM57.531 123.8H62.331V125.4H59.291V128.36H61.707V129.96H59.291V133.4H62.331V135H57.531V123.8ZM63.3435 123.8H65.9515C66.8582 123.8 67.5195 124.013 67.9355 124.44C68.3515 124.856 68.5595 125.501 68.5595 126.376V127.064C68.5595 128.227 68.1755 128.963 67.4075 129.272V129.304C67.8342 129.432 68.1328 129.693 68.3035 130.088C68.4848 130.483 68.5755 131.011 68.5755 131.672V133.64C68.5755 133.96 68.5862 134.221 68.6075 134.424C68.6288 134.616 68.6822 134.808 68.7675 135H66.9755C66.9115 134.819 66.8688 134.648 66.8475 134.488C66.8262 134.328 66.8155 134.04 66.8155 133.624V131.576C66.8155 131.064 66.7302 130.707 66.5595 130.504C66.3995 130.301 66.1168 130.2 65.7115 130.2H65.1035V135H63.3435V123.8ZM65.7435 128.6C66.0955 128.6 66.3568 128.509 66.5275 128.328C66.7088 128.147 66.7995 127.843 66.7995 127.416V126.552C66.7995 126.147 66.7248 125.853 66.5755 125.672C66.4368 125.491 66.2128 125.4 65.9035 125.4H65.1035V128.6H65.7435ZM71.1566 123.8H73.5406L75.3646 135H73.6046L73.2846 132.776V132.808H71.2846L70.9646 135H69.3326L71.1566 123.8ZM73.0766 131.288L72.2926 125.752H72.2606L71.4926 131.288H73.0766ZM76.2185 123.8H78.8745C79.7812 123.8 80.4425 124.013 80.8585 124.44C81.2745 124.856 81.4825 125.501 81.4825 126.376V126.824C81.4825 127.4 81.3865 127.869 81.1945 128.232C81.0132 128.595 80.7305 128.856 80.3465 129.016V129.048C81.2212 129.347 81.6585 130.125 81.6585 131.384V132.344C81.6585 133.208 81.4292 133.869 80.9705 134.328C80.5225 134.776 79.8612 135 78.9865 135H76.2185V123.8ZM78.6665 128.36C79.0185 128.36 79.2798 128.269 79.4505 128.088C79.6318 127.907 79.7225 127.603 79.7225 127.176V126.552C79.7225 126.147 79.6478 125.853 79.4985 125.672C79.3598 125.491 79.1358 125.4 78.8265 125.4H77.9785V128.36H78.6665ZM78.9865 133.4C79.2958 133.4 79.5252 133.32 79.6745 133.16C79.8238 132.989 79.8985 132.701 79.8985 132.296V131.32C79.8985 130.808 79.8078 130.456 79.6265 130.264C79.4558 130.061 79.1678 129.96 78.7625 129.96H77.9785V133.4H78.9865ZM82.6873 123.8H84.4473V133.4H87.3433V135H82.6873V123.8ZM88.1873 123.8H92.9873V125.4H89.9473V128.36H92.3633V129.96H89.9473V133.4H92.9873V135H88.1873V123.8Z" fill="black"/>
<path d="M32.656 152.8H34.864L36.576 159.504H36.608V152.8H38.176V164H36.368L34.256 155.824H34.224V164H32.656V152.8ZM39.4841 152.8H44.2841V154.4H41.2441V157.36H43.6601V158.96H41.2441V162.4H44.2841V164H39.4841V152.8ZM46.6566 152.8H49.0406L50.8646 164H49.1046L48.7846 161.776V161.808H46.7846L46.4646 164H44.8326L46.6566 152.8ZM48.5766 160.288L47.7926 154.752H47.7606L46.9926 160.288H48.5766ZM51.7185 152.8H54.3265C55.2332 152.8 55.8945 153.013 56.3105 153.44C56.7265 153.856 56.9345 154.501 56.9345 155.376V156.064C56.9345 157.227 56.5505 157.963 55.7825 158.272V158.304C56.2092 158.432 56.5078 158.693 56.6785 159.088C56.8598 159.483 56.9505 160.011 56.9505 160.672V162.64C56.9505 162.96 56.9612 163.221 56.9825 163.424C57.0038 163.616 57.0572 163.808 57.1425 164H55.3505C55.2865 163.819 55.2438 163.648 55.2225 163.488C55.2012 163.328 55.1905 163.04 55.1905 162.624V160.576C55.1905 160.064 55.1052 159.707 54.9345 159.504C54.7745 159.301 54.4918 159.2 54.0865 159.2H53.4785V164H51.7185V152.8ZM54.1185 157.6C54.4705 157.6 54.7318 157.509 54.9025 157.328C55.0838 157.147 55.1745 156.843 55.1745 156.416V155.552C55.1745 155.147 55.0998 154.853 54.9505 154.672C54.8118 154.491 54.5878 154.4 54.2785 154.4H53.4785V157.6H54.1185ZM62.1101 154.4H60.2701V152.8H65.7101V154.4H63.8701V164H62.1101V154.4ZM66.5623 152.8H68.3223V157.36H70.2103V152.8H71.9703V164H70.2103V158.96H68.3223V164H66.5623V152.8ZM73.281 152.8H75.889C76.7957 152.8 77.457 153.013 77.873 153.44C78.289 153.856 78.497 154.501 78.497 155.376V156.064C78.497 157.227 78.113 157.963 77.345 158.272V158.304C77.7717 158.432 78.0703 158.693 78.241 159.088C78.4223 159.483 78.513 160.011 78.513 160.672V162.64C78.513 162.96 78.5237 163.221 78.545 163.424C78.5663 163.616 78.6197 163.808 78.705 164H76.913C76.849 163.819 76.8063 163.648 76.785 163.488C76.7637 163.328 76.753 163.04 76.753 162.624V160.576C76.753 160.064 76.6677 159.707 76.497 159.504C76.337 159.301 76.0543 159.2 75.649 159.2H75.041V164H73.281V152.8ZM75.681 157.6C76.033 157.6 76.2943 157.509 76.465 157.328C76.6463 157.147 76.737 156.843 76.737 156.416V155.552C76.737 155.147 76.6623 154.853 76.513 154.672C76.3743 154.491 76.1503 154.4 75.841 154.4H75.041V157.6H75.681ZM79.7341 152.8H84.5341V154.4H81.4941V157.36H83.9101V158.96H81.4941V162.4H84.5341V164H79.7341V152.8ZM86.9066 152.8H89.2906L91.1146 164H89.3546L89.0346 161.776V161.808H87.0346L86.7146 164H85.0826L86.9066 152.8ZM88.8266 160.288L88.0426 154.752H88.0106L87.2426 160.288H88.8266ZM92.6101 154.4H90.7701V152.8H96.2101V154.4H94.3701V164H92.6101V154.4ZM97.0623 152.8H101.862V154.4H98.8223V157.36H101.238V158.96H98.8223V162.4H101.862V164H97.0623V152.8ZM102.875 152.8H105.083L106.795 159.504H106.827V152.8H108.395V164H106.587L104.475 155.824H104.443V164H102.875V152.8ZM109.703 152.8H114.503V154.4H111.463V157.36H113.879V158.96H111.463V162.4H114.503V164H109.703V152.8ZM115.515 152.8H118.203C119.078 152.8 119.734 153.035 120.171 153.504C120.609 153.973 120.827 154.661 120.827 155.568V161.232C120.827 162.139 120.609 162.827 120.171 163.296C119.734 163.765 119.078 164 118.203 164H115.515V152.8ZM118.171 162.4C118.459 162.4 118.678 162.315 118.827 162.144C118.987 161.973 119.067 161.696 119.067 161.312V155.488C119.067 155.104 118.987 154.827 118.827 154.656C118.678 154.485 118.459 154.4 118.171 154.4H117.275V162.4H118.171Z" fill="black"/>
<path d="M32.656 181.8H34.416V191.4H37.312V193H32.656V181.8ZM38.156 181.8H42.956V183.4H39.916V186.36H42.332V187.96H39.916V191.4H42.956V193H38.156V181.8ZM45.3285 181.8H47.7125L49.5365 193H47.7765L47.4565 190.776V190.808H45.4565L45.1365 193H43.5045L45.3285 181.8ZM47.2485 189.288L46.4645 183.752H46.4325L45.6645 189.288H47.2485ZM52.6315 193.16C51.7782 193.16 51.1328 192.92 50.6955 192.44C50.2582 191.949 50.0395 191.251 50.0395 190.344V189.704H51.7035V190.472C51.7035 191.197 52.0075 191.56 52.6155 191.56C52.9142 191.56 53.1382 191.475 53.2875 191.304C53.4475 191.123 53.5275 190.835 53.5275 190.44C53.5275 189.971 53.4208 189.56 53.2075 189.208C52.9942 188.845 52.5995 188.413 52.0235 187.912C51.2982 187.272 50.7915 186.696 50.5035 186.184C50.2155 185.661 50.0715 185.075 50.0715 184.424C50.0715 183.539 50.2955 182.856 50.7435 182.376C51.1915 181.885 51.8422 181.64 52.6955 181.64C53.5382 181.64 54.1728 181.885 54.5995 182.376C55.0368 182.856 55.2555 183.549 55.2555 184.456V184.92H53.5915V184.344C53.5915 183.96 53.5168 183.683 53.3675 183.512C53.2182 183.331 52.9995 183.24 52.7115 183.24C52.1248 183.24 51.8315 183.597 51.8315 184.312C51.8315 184.717 51.9382 185.096 52.1515 185.448C52.3755 185.8 52.7755 186.227 53.3515 186.728C54.0875 187.368 54.5942 187.949 54.8715 188.472C55.1488 188.995 55.2875 189.608 55.2875 190.312C55.2875 191.229 55.0582 191.933 54.5995 192.424C54.1515 192.915 53.4955 193.16 52.6315 193.16ZM57.6726 183.4H55.8326V181.8H61.2726V183.4H59.4326V193H57.6726V183.4ZM67.1673 193.16C66.3246 193.16 65.6793 192.92 65.2313 192.44C64.7939 191.96 64.5753 191.283 64.5753 190.408V184.392C64.5753 183.517 64.7939 182.84 65.2313 182.36C65.6793 181.88 66.3246 181.64 67.1673 181.64C68.0099 181.64 68.6499 181.88 69.0873 182.36C69.5353 182.84 69.7593 183.517 69.7593 184.392V185.576H68.0953V184.28C68.0953 183.587 67.8019 183.24 67.2153 183.24C66.6286 183.24 66.3353 183.587 66.3353 184.28V190.536C66.3353 191.219 66.6286 191.56 67.2153 191.56C67.8019 191.56 68.0953 191.219 68.0953 190.536V188.824H69.7593V190.408C69.7593 191.283 69.5353 191.96 69.0873 192.44C68.6499 192.92 68.0099 193.16 67.1673 193.16ZM73.3875 193.16C72.5235 193.16 71.8622 192.915 71.4035 192.424C70.9448 191.933 70.7155 191.24 70.7155 190.344V184.456C70.7155 183.56 70.9448 182.867 71.4035 182.376C71.8622 181.885 72.5235 181.64 73.3875 181.64C74.2515 181.64 74.9128 181.885 75.3715 182.376C75.8302 182.867 76.0595 183.56 76.0595 184.456V190.344C76.0595 191.24 75.8302 191.933 75.3715 192.424C74.9128 192.915 74.2515 193.16 73.3875 193.16ZM73.3875 191.56C73.9955 191.56 74.2995 191.192 74.2995 190.456V184.344C74.2995 183.608 73.9955 183.24 73.3875 183.24C72.7795 183.24 72.4755 183.608 72.4755 184.344V190.456C72.4755 191.192 72.7795 191.56 73.3875 191.56ZM77.2498 181.8H79.4578L81.1698 188.504H81.2018V181.8H82.7698V193H80.9618L78.8498 184.824H78.8178V193H77.2498V181.8ZM86.5579 193.16C85.7152 193.16 85.0699 192.92 84.6219 192.44C84.1845 191.96 83.9659 191.283 83.9659 190.408V184.392C83.9659 183.517 84.1845 182.84 84.6219 182.36C85.0699 181.88 85.7152 181.64 86.5579 181.64C87.4005 181.64 88.0405 181.88 88.4779 182.36C88.9259 182.84 89.1499 183.517 89.1499 184.392V185.576H87.4859V184.28C87.4859 183.587 87.1925 183.24 86.6059 183.24C86.0192 183.24 85.7259 183.587 85.7259 184.28V190.536C85.7259 191.219 86.0192 191.56 86.6059 191.56C87.1925 191.56 87.4859 191.219 87.4859 190.536V188.824H89.1499V190.408C89.1499 191.283 88.9259 191.96 88.4779 192.44C88.0405 192.92 87.4005 193.16 86.5579 193.16ZM90.2029 181.8H95.0029V183.4H91.9629V186.36H94.3789V187.96H91.9629V191.4H95.0029V193H90.2029V181.8ZM96.0154 181.8H98.6234C99.53 181.8 100.191 182.013 100.607 182.44C101.023 182.856 101.231 183.501 101.231 184.376V185.064C101.231 186.227 100.847 186.963 100.079 187.272V187.304C100.506 187.432 100.805 187.693 100.975 188.088C101.157 188.483 101.247 189.011 101.247 189.672V191.64C101.247 191.96 101.258 192.221 101.279 192.424C101.301 192.616 101.354 192.808 101.439 193H99.6474C99.5834 192.819 99.5407 192.648 99.5194 192.488C99.498 192.328 99.4874 192.04 99.4874 191.624V189.576C99.4874 189.064 99.402 188.707 99.2314 188.504C99.0714 188.301 98.7887 188.2 98.3834 188.2H97.7754V193H96.0154V181.8ZM98.4154 186.6C98.7674 186.6 99.0287 186.509 99.1994 186.328C99.3807 186.147 99.4714 185.843 99.4714 185.416V184.552C99.4714 184.147 99.3967 183.853 99.2474 183.672C99.1087 183.491 98.8847 183.4 98.5754 183.4H97.7754V186.6H98.4154ZM102.469 181.8H104.677L106.389 188.504H106.421V181.8H107.989V193H106.181L104.069 184.824H104.037V193H102.469V181.8Z" fill="black"/>
<path d="M35.136 76.16C34.2933 76.16 33.648 75.92 33.2 75.44C32.7627 74.96 32.544 74.2827 32.544 73.408V67.392C32.544 66.5173 32.7627 65.84 33.2 65.36C33.648 64.88 34.2933 64.64 35.136 64.64C35.9787 64.64 36.6187 64.88 37.056 65.36C37.504 65.84 37.728 66.5173 37.728 67.392V68.576H36.064V67.28C36.064 66.5867 35.7707 66.24 35.184 66.24C34.5973 66.24 34.304 66.5867 34.304 67.28V73.536C34.304 74.2187 34.5973 74.56 35.184 74.56C35.7707 74.56 36.064 74.2187 36.064 73.536V71.824H37.728V73.408C37.728 74.2827 37.504 74.96 37.056 75.44C36.6187 75.92 35.9787 76.16 35.136 76.16ZM38.781 64.8H41.389C42.2957 64.8 42.957 65.0133 43.373 65.44C43.789 65.856 43.997 66.5013 43.997 67.376V68.064C43.997 69.2267 43.613 69.9627 42.845 70.272V70.304C43.2717 70.432 43.5703 70.6933 43.741 71.088C43.9223 71.4827 44.013 72.0107 44.013 72.672V74.64C44.013 74.96 44.0237 75.2213 44.045 75.424C44.0663 75.616 44.1197 75.808 44.205 76H42.413C42.349 75.8187 42.3063 75.648 42.285 75.488C42.2637 75.328 42.253 75.04 42.253 74.624V72.576C42.253 72.064 42.1677 71.7067 41.997 71.504C41.837 71.3013 41.5543 71.2 41.149 71.2H40.541V76H38.781V64.8ZM41.181 69.6C41.533 69.6 41.7943 69.5093 41.965 69.328C42.1463 69.1467 42.237 68.8427 42.237 68.416V67.552C42.237 67.1467 42.1623 66.8533 42.013 66.672C41.8743 66.4907 41.6503 66.4 41.341 66.4H40.541V69.6H41.181ZM45.2341 64.8H46.9941V76H45.2341V64.8ZM49.6883 66.4H47.8483V64.8H53.2883V66.4H51.4483V76H49.6883V66.4ZM54.1404 64.8H55.9004V76H54.1404V64.8ZM59.6985 76.16C58.8558 76.16 58.2105 75.92 57.7625 75.44C57.3252 74.96 57.1065 74.2827 57.1065 73.408V67.392C57.1065 66.5173 57.3252 65.84 57.7625 65.36C58.2105 64.88 58.8558 64.64 59.6985 64.64C60.5412 64.64 61.1812 64.88 61.6185 65.36C62.0665 65.84 62.2905 66.5173 62.2905 67.392V68.576H60.6265V67.28C60.6265 66.5867 60.3332 66.24 59.7465 66.24C59.1598 66.24 58.8665 66.5867 58.8665 67.28V73.536C58.8665 74.2187 59.1598 74.56 59.7465 74.56C60.3332 74.56 60.6265 74.2187 60.6265 73.536V71.824H62.2905V73.408C62.2905 74.2827 62.0665 74.96 61.6185 75.44C61.1812 75.92 60.5412 76.16 59.6985 76.16ZM64.7035 64.8H67.0875L68.9115 76H67.1515L66.8315 73.776V73.808H64.8315L64.5115 76H62.8795L64.7035 64.8ZM66.6235 72.288L65.8395 66.752H65.8075L65.0395 72.288H66.6235ZM69.7654 64.8H71.5254V74.4H74.4214V76H69.7654V64.8Z" fill="black"/>
<path d="M32.656 35.8H37.456V37.4H34.416V40.36H36.832V41.96H34.416V45.4H37.456V47H32.656V35.8ZM40.0518 41.272L38.1158 35.8H39.9718L41.1558 39.416H41.1878L42.4038 35.8H44.0678L42.1318 41.272L44.1638 47H42.3078L41.0278 43.096H40.9958L39.6838 47H38.0198L40.0518 41.272ZM46.3758 37.4H44.5358V35.8H49.9758V37.4H48.1358V47H46.3758V37.4ZM50.8279 35.8H52.5879V47H50.8279V35.8ZM53.906 35.8H56.114L57.826 42.504H57.858V35.8H59.426V47H57.618L55.506 38.824H55.474V47H53.906V35.8ZM63.2141 47.16C62.3715 47.16 61.7261 46.92 61.2781 46.44C60.8408 45.96 60.6221 45.2827 60.6221 44.408V38.392C60.6221 37.5173 60.8408 36.84 61.2781 36.36C61.7261 35.88 62.3715 35.64 63.2141 35.64C64.0568 35.64 64.6968 35.88 65.1341 36.36C65.5821 36.84 65.8061 37.5173 65.8061 38.392V39.576H64.1421V38.28C64.1421 37.5867 63.8488 37.24 63.2621 37.24C62.6755 37.24 62.3821 37.5867 62.3821 38.28V44.536C62.3821 45.2187 62.6755 45.56 63.2621 45.56C63.8488 45.56 64.1421 45.2187 64.1421 44.536V42.824H65.8061V44.408C65.8061 45.2827 65.5821 45.96 65.1341 46.44C64.6968 46.92 64.0568 47.16 63.2141 47.16ZM68.2351 37.4H66.3951V35.8H71.8351V37.4H69.9951V47H68.2351V37.4ZM75.2498 35.8H77.0098V47H75.2498V35.8ZM78.3279 35.8H80.5359L82.2479 42.504H82.2799V35.8H83.8479V47H82.0399L79.9279 38.824H79.8959V47H78.3279V35.8ZM87.3025 35.8H88.9985L89.7825 44.408H89.8145L90.6465 35.8H92.5665L93.3985 44.408H93.4305L94.2145 35.8H95.7345L94.5985 47H92.4065L91.6065 39.448H91.5745L90.7745 47H88.4385L87.3025 35.8ZM96.6248 35.8H98.3848V47H96.6248V35.8ZM99.7029 35.8H101.463V45.4H104.359V47H99.7029V35.8ZM105.203 35.8H107.891C108.766 35.8 109.422 36.0347 109.859 36.504C110.296 36.9733 110.515 37.6613 110.515 38.568V44.232C110.515 45.1387 110.296 45.8267 109.859 46.296C109.422 46.7653 108.766 47 107.891 47H105.203V35.8ZM107.859 45.4C108.147 45.4 108.366 45.3147 108.515 45.144C108.675 44.9733 108.755 44.696 108.755 44.312V38.488C108.755 38.104 108.675 37.8267 108.515 37.656C108.366 37.4853 108.147 37.4 107.859 37.4H106.963V45.4H107.859Z" fill="black"/>
<path d="M32.656 5.8H37.456V7.4H34.416V10.36H36.832V11.96H34.416V15.4H37.456V17H32.656V5.8ZM40.0518 11.272L38.1158 5.8H39.9718L41.1558 9.416H41.1878L42.4038 5.8H44.0678L42.1318 11.272L44.1638 17H42.3078L41.0278 13.096H40.9958L39.6838 17H38.0198L40.0518 11.272ZM46.3758 7.4H44.5358V5.8H49.9758V7.4H48.1358V17H46.3758V7.4ZM50.8279 5.8H52.5879V17H50.8279V5.8ZM53.906 5.8H56.114L57.826 12.504H57.858V5.8H59.426V17H57.618L55.506 8.824H55.474V17H53.906V5.8ZM63.2141 17.16C62.3715 17.16 61.7261 16.92 61.2781 16.44C60.8408 15.96 60.6221 15.2827 60.6221 14.408V8.392C60.6221 7.51733 60.8408 6.84 61.2781 6.36C61.7261 5.88 62.3715 5.64 63.2141 5.64C64.0568 5.64 64.6968 5.88 65.1341 6.36C65.5821 6.84 65.8061 7.51733 65.8061 8.392V9.576H64.1421V8.28C64.1421 7.58667 63.8488 7.24 63.2621 7.24C62.6755 7.24 62.3821 7.58667 62.3821 8.28V14.536C62.3821 15.2187 62.6755 15.56 63.2621 15.56C63.8488 15.56 64.1421 15.2187 64.1421 14.536V12.824H65.8061V14.408C65.8061 15.2827 65.5821 15.96 65.1341 16.44C64.6968 16.92 64.0568 17.16 63.2141 17.16ZM68.2351 7.4H66.3951V5.8H71.8351V7.4H69.9951V17H68.2351V7.4Z" fill="black"/>
</svg>
